<?xml version="1.0" encoding="utf-8"?>
<!-- Generator: Adobe Illustrator 22.0.0, SVG Export Plug-In . SVG Version: 6.00 Build 0)  -->
<svg version="1.1" id="Layer_1" xmlns="http://www.w3.org/2000/svg" xmlns:xlink="http://www.w3.org/1999/xlink" x="0px" y="0px"
	 viewBox="0 0 288 45" style="enable-background:new 0 0 288 45;" xml:space="preserve">
<style type="text/css">
	.st0{fill:#E02927;}
	.st1{fill:url(#SVGID_1_);}
	.st2{fill:url(#SVGID_2_);}
	.st3{fill:url(#SVGID_3_);}
	.st4{fill:url(#SVGID_4_);}
	.st5{fill:url(#SVGID_5_);}
	.st6{fill:url(#SVGID_6_);}
</style>
<path class="st0" d="M17.9,41.3h9.7c3.8,0,7-0.6,9.7-1.8c3.8-1.6,5.7-3.9,5.7-7V7.1C43,6,42.6,5.3,41.8,5c-0.7-0.2-1.6-0.2-2.7-0.2
	c-1.6,0-2.3,0.8-2.3,2.4v5.6H17.8c-9.6,0-14.6,3-15,8.9c-0.1,2-0.2,4.5-0.2,7.7c0,1.6,0,2.8,0.1,3.8C3.1,38.6,8.1,41.3,17.9,41.3z
	 M9.2,21.8c0-2.5,2.8-3.7,8.5-3.7h19v14.2c0,2.4-3.3,3.7-9.8,3.7h-9.1c-2.7,0-4.5-0.1-5.4-0.4c-2.1-0.5-3.2-1.7-3.2-3.6V21.8z"/>
<path class="st0" d="M91.4,41.1c0.3,0.1,1.2,0.2,2.7,0.2c1.6,0,2.3-0.8,2.3-2.4V7.1c0-1.2-0.4-1.9-1.3-2.2c-0.4-0.1-1.3-0.2-2.7-0.2
	c-1.6,0-2.3,0.8-2.3,2.3v31.8C90.1,40,90.5,40.7,91.4,41.1z"/>
<path class="st0" d="M50,38.8c1.6,1.2,4.1,2,7.4,2.4c0.7,0.1,1.7,0.1,3,0.2c1.3,0,17.2,0,19.3,0c1.5,0,2.3-0.8,2.3-2.3
	c0-1.9-0.8-2.8-2.3-2.8c-2,0-17.9,0-19.1-0.1c-1.3-0.1-2.3-0.2-2.9-0.4C54.5,35,53,33.3,53,30.7v-0.2h30.4c1.1,0,1.7-0.8,1.7-2.5
	v-6.7c0-2.7-1.5-4.8-4.4-6.1c-2.1-1.1-4.8-1.6-8-1.6H61.3c-3.9,0-7.1,0.6-9.4,1.7c-3.5,1.5-5.2,3.9-5.2,7.1v10.2
	C46.6,35,47.8,37,50,38.8z M52.7,22c0-1.4,1.3-2.4,3.9-2.8c1.8-0.3,5.2-0.5,10.1-0.5c8.3,0,12.4,1,12.4,3.1v3.4H52.7V22z"/>
<linearGradient id="SVGID_1_" gradientUnits="userSpaceOnUse" x1="266.7285" y1="13.8857" x2="266.7285" y2="41.6933">
	<stop  offset="0" style="stop-color:#141E91"/>
	<stop  offset="1" style="stop-color:#152096"/>
</linearGradient>
<path class="st1" d="M250.9,39.1c1.6,1.2,4.1,2,7.4,2.4c0.7,0.1,1.7,0.1,3,0.2c1.3,0,17.2,0,19.3,0c1.5,0,2.3-0.8,2.3-2.3
	c0-1.9-0.8-2.8-2.3-2.8c-2,0-17.9,0-19.1-0.1c-1.3-0.1-2.3-0.2-2.9-0.4c-3.1-0.8-4.6-2.4-4.6-5.1v-0.2h30.4c1.1,0,1.7-0.8,1.7-2.5
	v-6.7c0-2.7-1.5-4.8-4.4-6.1c-2.1-1.1-4.8-1.6-8-1.6h-11.4c-3.9,0-7.1,0.6-9.4,1.7c-3.5,1.5-5.2,3.9-5.2,7.1v10.2
	C247.5,35.3,248.7,37.4,250.9,39.1z M253.6,22.3c0-1.4,1.3-2.4,3.9-2.8c1.8-0.3,5.2-0.5,10.1-0.5c8.3,0,12.4,1,12.4,3.1v3.4h-26.3
	V22.3z"/>
<linearGradient id="SVGID_2_" gradientUnits="userSpaceOnUse" x1="123.9552" y1="5.3188" x2="123.9552" y2="41.8467">
	<stop  offset="0" style="stop-color:#141E91"/>
	<stop  offset="1" style="stop-color:#152096"/>
</linearGradient>
<path class="st2" d="M107.9,40.1c2.6,1.2,6.2,1.7,10.8,1.7h10.4c11.3,0,16.9-3.3,16.9-9.8V15.2c0-4.2-1.9-7-5.8-8.5
	c-2.2-0.9-5.9-1.4-11.1-1.4h-10.4c-11.3,0-16.9,3.3-16.9,9.9v16.9C101.9,35.8,103.9,38.5,107.9,40.1z M108.5,15.4
	c0-3.1,3.4-4.6,10.2-4.6h10.6c6.7,0,10.1,1.5,10.1,4.6v16.5c0,3-3.4,4.5-10.1,4.5h-10.6c-6.8,0-10.2-1.5-10.2-4.5V15.4z"/>
<linearGradient id="SVGID_3_" gradientUnits="userSpaceOnUse" x1="159.803" y1="5.3018" x2="159.803" y2="41.8595">
	<stop  offset="0" style="stop-color:#141E91"/>
	<stop  offset="1" style="stop-color:#152096"/>
</linearGradient>
<path class="st3" d="M151.9,41.6c0.3,0.1,1.2,0.2,2.7,0.2c1.6,0,2.3-0.8,2.3-2.4V18.6h9.7c1.6,0,2.3-1,2.3-2.9
	c0-1.6-0.8-2.3-2.3-2.3h-9.6c0-1.3,1.3-2.2,4-2.6c0.9-0.1,2.7-0.2,5.5-0.2c1.6,0,2.3-0.8,2.3-2.3c0-1.4-0.4-2.3-1.1-2.7
	c-0.4-0.2-1.4-0.3-3-0.3c-9.5,0-14.2,2.8-14.2,8.5v25.7C150.6,40.6,151.1,41.3,151.9,41.6z"/>
<linearGradient id="SVGID_4_" gradientUnits="userSpaceOnUse" x1="181.0958" y1="5.3018" x2="181.0958" y2="41.8595">
	<stop  offset="0" style="stop-color:#141E91"/>
	<stop  offset="1" style="stop-color:#152096"/>
</linearGradient>
<path class="st4" d="M173.2,41.6c0.3,0.1,1.2,0.2,2.7,0.2c1.6,0,2.3-0.8,2.3-2.4V18.6h9.7c1.6,0,2.3-1,2.3-2.9
	c0-1.6-0.8-2.3-2.3-2.3h-9.6c0-1.3,1.3-2.2,4-2.6c0.9-0.1,2.7-0.2,5.5-0.2c1.6,0,2.3-0.8,2.3-2.3c0-1.4-0.4-2.3-1.1-2.7
	c-0.4-0.2-1.4-0.3-3-0.3c-9.5,0-14.2,2.8-14.2,8.5v25.7C171.9,40.6,172.4,41.3,173.2,41.6z"/>
<linearGradient id="SVGID_5_" gradientUnits="userSpaceOnUse" x1="226.3314" y1="13.2714" x2="226.3314" y2="42.0317">
	<stop  offset="0" style="stop-color:#141E91"/>
	<stop  offset="1" style="stop-color:#152096"/>
</linearGradient>
<path class="st5" d="M212.6,40.7c2,0.9,5.2,1.3,9.7,1.3h19c2,0,3.8-0.8,3.8-2.4c0-2-1.7-2.9-3.2-2.9h-19.4c-5.8,0-8.7-1.2-8.7-3.7
	V21.8c0-2.1,2.5-3.2,7.6-3.2h20.2c1.6,0,3.3-0.9,3.3-2.7c0-1.8-1.7-2.7-3.3-2.7H221c-9,0-13.5,2.9-13.5,8.7v11.3
	C207.5,36.9,209.2,39.4,212.6,40.7z"/>
<linearGradient id="SVGID_6_" gradientUnits="userSpaceOnUse" x1="198.9307" y1="13.4358" x2="198.9307" y2="42.2861">
	<stop  offset="0" style="stop-color:#141E91"/>
	<stop  offset="1" style="stop-color:#152096"/>
</linearGradient>
<path class="st6" d="M200.8,13.6c-0.3-0.1-1.1-0.2-2.7-0.2c-1.6,0-2.4,0.8-2.4,2.3v24.1c0,1.1,0.4,1.9,1.2,2.2
	c0.3,0.1,1.2,0.2,2.7,0.2c1.6,0,2.4-0.8,2.4-2.4V15.8C202.1,14.7,201.7,13.9,200.8,13.6z"/>
<path class="st0" d="M196.3,8.1c0.8,0.5,1.7,0.8,2.8,0.8c1.1,0,2-0.3,2.8-0.8c0.9-0.6,1.3-1.4,1.3-2.5c0-1-0.4-1.9-1.3-2.5
	c-0.8-0.5-1.7-0.8-2.8-0.8c-1.1,0-2,0.3-2.8,0.8c-0.9,0.6-1.3,1.4-1.3,2.5C195,6.7,195.4,7.5,196.3,8.1z"/>
</svg>
