<?xml version="1.0" encoding="utf-8"?>
<!-- Generator: Adobe Illustrator 22.0.0, SVG Export Plug-In . SVG Version: 6.00 Build 0)  -->
<svg version="1.1" id="Layer_1" xmlns="http://www.w3.org/2000/svg" xmlns:xlink="http://www.w3.org/1999/xlink" x="0px" y="0px"
	 viewBox="0 0 349.3 74.9" style="enable-background:new 0 0 349.3 74.9;" xml:space="preserve">
<style type="text/css">
	.st0{fill:#DA1D18;}
	.st1{fill:#FFFFFF;}
</style>
<path class="st0" d="M137.1,23.1h-7.6c-2.4,0-4.4,0.2-6.1,0.7V23c0-1.1-0.6-1.6-1.7-1.6c-1.2,0-1.8,0-2,0.1
	c-0.6,0.2-0.9,0.7-0.9,1.5v5.8v6.7v5.8c0,0.8,0.3,1.3,0.9,1.5c0.2,0.1,0.9,0.1,2,0.1c1.2,0,1.7-0.5,1.7-1.6v-5.7v-6.7
	c0-0.9,0.8-1.5,2.3-1.7c0.3-0.1,0.8-0.1,1.3-0.1c0.6,0,1.2,0,2.1,0h8.1c0.9,0,1.6,0,2.2,0c0.6,0,1,0.1,1.3,0.1
	c1.6,0.3,2.4,0.9,2.4,1.7v12.5c0,0.8,0.3,1.3,1,1.5c0.2,0.1,0.9,0.1,2,0.1c1.2,0,1.8-0.5,1.8-1.6V28.6
	C147.7,24.9,144.2,23.1,137.1,23.1z"/>
<path class="st1" d="M44.4,27.5c3.5-1.5,5.2-3.9,5.2-7.1V16c0-3.5-1.9-6-5.8-7.5C41.2,7.5,37.7,7,33.6,7h-27C5.1,7,4.3,7.7,4.3,9.3
	v31.3c0,1.1,0.5,1.8,1.4,2.1C6,42.8,7,42.9,8.6,42.9s2.3-0.8,2.3-2.3V29.9l30.5,12.8c0.6,0.2,1.4,0.2,2.5,0.2c2.6,0,3.9-0.7,3.9-2.2
	c0-1-0.6-1.8-1.8-2.3l-22.3-9.3h11C38.4,29.1,41.6,28.6,44.4,27.5z M11,23.8V12.3h22.6c6.3,0,9.4,1.2,9.4,3.6v4.5
	c0,2.2-2.7,3.4-8.2,3.4H11z"/>
<path class="st1" d="M73.6,17.4h-9.4c-3.3,0-6.1,0.6-8.4,1.7c-3.1,1.5-4.6,3.7-4.6,6.5v9.5c0,2.9,1.5,5,4.6,6.4
	c2.5,1.1,5.3,1.6,8.4,1.6h9.4c3.4,0,6.1-0.5,8.2-1.6c2.9-1.4,4.3-3.5,4.3-6.4v-9.5C86.1,20.1,81.9,17.4,73.6,17.4z M80.4,35.1
	c0,1.1-0.9,2-2.7,2.6c-1.3,0.4-2.7,0.6-4.2,0.6h-9.1c-1.7,0-3.3-0.2-4.6-0.6c-2-0.6-2.9-1.5-2.9-2.7v-9.5c0-1.3,1-2.2,2.9-2.8
	c1.4-0.4,2.9-0.6,4.6-0.6h9.1c4.6,0,6.9,1,6.9,3.1C80.4,25.2,80.4,35.1,80.4,35.1z"/>
<path class="st1" d="M96.5,41.3c0,1.3-0.7,1.9-2.1,1.9S92.2,43.1,92,43c-0.8-0.3-1.1-0.8-1.1-1.7V12c0-1.2,0.7-1.9,2.1-1.9
	c1.3,0,2.1,0,2.4,0.1c0.7,0.2,1.1,0.8,1.1,1.7V41.3z"/>
<path class="st1" d="M106.2,41.1c0,1.3-0.7,1.9-2.1,1.9s-2.2-0.1-2.4-0.2c-0.8-0.3-1.1-0.8-1.1-1.7V11.8c0-1.2,0.7-1.9,2.1-1.9
	c1.3,0,2.1,0,2.4,0.1c0.7,0.2,1.1,0.8,1.1,1.7V41.1z"/>
<path class="st1" d="M200.6,34.1c0,1.9-0.3,3.4-0.9,4.5c-1.6,2.9-6.5,4.4-14.6,4.4h-22.4c-1.5,0-2.2-0.8-2.2-2.3
	c0-1.1,0.1-1.8,0.3-2.2c0.3-0.6,1-0.9,1.9-0.9H185c6,0,9.1-1.1,9.1-3.4v-3.1c0-2.2-2.9-3.4-8.8-3.6l-10.8-0.4
	c-0.5,0-1.2-0.1-2.1-0.1c-0.9-0.1-2.1-0.1-3.4-0.2c-2.3-0.3-4.3-1.1-6-2.3c-1.8-1.4-2.7-3.3-2.7-5.6v-2.7c0-4.2,2.3-7,6.9-8.3
	C169.4,7.3,190.1,7,196,7c1.5,0,2.3,1,2.3,3c0,1.2-0.5,1.9-1.4,2.2c-0.1,0.1-17.8,0.1-19.5,0.1c-7.1,0-10.6,1.3-10.6,3.8v2.5
	c0,1.6,1.3,2.6,4,3c0.5,0.1,1.2,0.2,2.2,0.2c1,0.1,2.1,0.1,3.5,0.1h8.7c4.1,0,7.4,0.5,9.8,1.6c3.8,1.6,5.7,4,5.7,7.3L200.6,34.1
	L200.6,34.1z"/>
<path class="st1" d="M319.1,30.7c0,1.5-0.5,2.3-1.6,2.3h-29v0.2c0,2.4,1.5,4,4.4,4.6c0.6,0.1,1.6,0.3,2.8,0.3
	c1.2,0.1,16.4,0.1,18.3,0.1c1.4,0,2.2,0.9,2.2,2.6c0,1.4-0.7,2.1-2.2,2.1c-2,0-17.1,0-18.4,0c-1.2,0-2.2-0.1-2.8-0.1
	c-3.2-0.3-5.6-1-7.1-2.2c-2.2-1.6-3.2-3.5-3.2-5.7v-9.4c0-2.9,1.7-5.1,5-6.5c2.3-1,5.3-1.5,9-1.5h10.9c3.1,0,5.6,0.5,7.6,1.5
	c2.8,1.2,4.2,3.1,4.2,5.6L319.1,30.7L319.1,30.7z M313.4,28.1V25c0-1.9-4-2.9-11.9-2.9c-4.7,0-7.9,0.2-9.6,0.5
	c-2.5,0.4-3.7,1.3-3.7,2.6v2.9H313.4z"/>
<path class="st1" d="M279.6,30.7c0,1.5-0.5,2.3-1.6,2.3h-29v0.2c0,2.4,1.5,4,4.4,4.6c0.6,0.1,1.6,0.3,2.8,0.3
	c1.2,0.1,16.4,0.1,18.3,0.1c1.4,0,2.2,0.9,2.2,2.6c0,1.4-0.7,2.1-2.2,2.1c-2,0-17.1,0-18.4,0c-1.2,0-2.2-0.1-2.8-0.1
	c-3.2-0.3-5.6-1-7.1-2.2c-2.2-1.6-3.2-3.5-3.2-5.7v-9.4c0-2.9,1.7-5.1,5-6.5c2.3-1,5.3-1.5,9-1.5h10.9c3.1,0,5.6,0.5,7.6,1.5
	c2.8,1.2,4.2,3.1,4.2,5.6L279.6,30.7L279.6,30.7z M273.9,28.1V25c0-1.9-4-2.9-11.9-2.9c-4.7,0-7.9,0.2-9.6,0.5
	c-2.5,0.4-3.7,1.3-3.7,2.6v2.9H273.9z"/>
<path class="st1" d="M235.3,18.5c-1.8-0.7-5-1.1-9.5-1.1h-15.2v-5.1v-0.1c0-0.1,0-0.2,0-0.3s0-0.2,0-0.3l0,0c-0.2-1-0.9-1.4-2-1.4
	c-1.3,0-2.4,0.2-2.4,0.2s-0.1,0.1-0.2,0.1c-0.6,0.3-0.9,0.8-0.9,1.6c0,0.1,0,0.1,0,0.2l0,0v28V41c0,1,0.4,1.7,1.1,1.9
	c0.2,0.1,1,0.2,2.4,0.2s2.1-0.7,2.1-2.1V22.2h16.5c1.9,0,3.5,0.1,4.7,0.4c1.9,0.5,2.8,1.6,2.8,3.2V41c0,1.4,0.7,2.1,2.1,2.1
	c1.4,0,2.2-0.1,2.4-0.2c0.7-0.3,1.1-0.9,1.1-1.9V25.6C240.3,22.1,238.7,19.7,235.3,18.5z"/>
<path class="st1" d="M340.4,39.2c-1.9,0-2.3,0-3.5-0.1s-2.2-0.2-2.8-0.3c-2.9-0.6-4.4-1.9-4.4-4v-0.2l-0.1-1v-4.1v-7.3h8.9
	c1.4,0,2.1-0.7,2.1-2.1c0-1.7-0.7-2.6-2.1-2.6h-8.9v-5v-1.2c0-0.7-0.4-1.1-1.2-1.2c-0.3-0.1-1.2-0.1-2.6-0.1c-1.5,0-2.2,0.4-2.2,1.3
	v6.3c-0.6,0-1.1,0-1.5,0c-0.5,0-0.8,0.1-1,0.1c-0.9,0.3-1.3,1-1.3,2.2s0.4,1.9,1.3,2.2c0.2,0,0.5,0.1,1,0.1c0.4,0,0.9,0,1.5,0v6v1.2
	v6.9c0,1.9,1.1,3.5,3.2,4.9c1.5,1,3.9,1.6,7.1,1.9c0.6,0.1,1.6,0.1,2.8,0.1c1.2,0,1.7,0,3.7,0c1.4,0,2.2-0.6,2.2-1.8
	C342.6,40,341.9,39.2,340.4,39.2z"/>
<path class="st1" d="M49,63.6c0,0.2,0,0.3,0,0.4c0,0.1-0.1,0.2-0.1,0.3c-0.1,0.1-0.2,0.1-0.3,0.1c-0.1,0.1-0.4,0-0.6,0
	c-0.2,0-0.3,0-0.5,0s-0.2,0-0.3-0.1c-0.1-0.1-0.1-0.1-0.1-0.1c0-0.1-0.1-0.1-0.1-0.2l-0.5-3.6h-6.3l-2,3.6c-0.1,0.1-0.1,0.1-0.1,0.2
	c-0.1,0.1-0.1,0.1-0.2,0.1c-0.1,0.1-0.2,0.1-0.3,0.1c-0.1,0-0.3,0-0.5,0c-0.3,0-0.4,0-0.5,0c-0.1,0-0.3-0.1-0.3-0.1
	s-0.1-0.1-0.1-0.3c0-0.1,0.1-0.3,0.1-0.4l7.8-13.9c0.1-0.1,0.1-0.1,0.2-0.2c0.1-0.1,0.1-0.1,0.3-0.1c0.1-0.1,0.2-0.1,0.4-0.1
	c0.2,0,0.3,0,0.6,0s0.5,0,0.6,0s0.3,0,0.4,0.1c0.1,0.1,0.1,0.1,0.2,0.1c0.1,0.1,0.1,0.1,0.1,0.2L49,63.6z M45.1,51.4L45.1,51.4
	L41,58.8h5.2L45.1,51.4z"/>
<path class="st1" d="M71.7,64.1c0,0.1,0,0.1-0.1,0.1s-0.1,0.1-0.2,0.1s-0.2,0.1-0.3,0.1c-0.1,0-0.3,0-0.5,0s-0.3,0-0.5,0
	c-0.1,0-0.2-0.1-0.3-0.1s-0.1-0.1-0.1-0.1c0-0.1,0-0.1,0-0.1l1.3-6.4c0.1-0.2,0.1-0.5,0.1-0.7c0-0.2,0.1-0.4,0.1-0.6
	c0-0.5-0.1-0.9-0.3-1.2c-0.2-0.3-0.5-0.5-1-0.5c-0.4,0-0.8,0.1-1.2,0.3c-0.4,0.2-0.8,0.5-1.2,1c-0.4,0.5-0.7,0.9-1,1.4
	c-0.3,0.5-0.5,1.2-0.7,1.9l-0.9,4.7c0,0.1-0.1,0.1-0.1,0.1s-0.1,0.1-0.2,0.1c-0.1,0.1-0.2,0.1-0.3,0.1c-0.1,0-0.3,0-0.5,0
	c-0.2,0-0.3,0-0.5,0c-0.1,0-0.2-0.1-0.3-0.1c-0.1,0-0.1-0.1-0.1-0.1s0-0.1,0-0.1l1.3-6.4c0.1-0.3,0.1-0.5,0.1-0.7
	c0.1-0.2,0-0.5,0-0.6c0-0.5-0.1-0.9-0.3-1.1s-0.5-0.4-1-0.4c-0.4,0-0.8,0.1-1.2,0.3c-0.4,0.2-0.8,0.5-1.2,1c-0.4,0.5-0.7,0.9-1,1.4
	s-0.5,1.1-0.7,1.8l-0.9,4.7c0,0.1-0.1,0.1-0.1,0.1s-0.1,0.1-0.2,0.1c-0.1,0.1-0.2,0.1-0.3,0.1s-0.3,0-0.5,0c-0.2,0-0.3,0-0.5,0
	s-0.2-0.1-0.3-0.1c-0.1,0-0.1-0.1-0.1-0.1c0-0.1,0-0.1,0-0.1l2-10.5l0.1-0.1c0.1-0.1,0.1-0.1,0.1-0.1c0.1-0.1,0.2-0.1,0.3-0.1
	c0.1,0,0.3,0,0.4,0c0.1,0,0.3,0,0.4,0c0.1,0,0.2,0,0.3,0.1l0.1,0.1v0.1l-0.4,2c0.1-0.3,0.3-0.5,0.6-0.9c0.3-0.3,0.6-0.6,0.9-0.8
	c0.3-0.2,0.7-0.5,1.2-0.6c0.5-0.1,0.9-0.3,1.3-0.3c0.5,0,0.9,0.1,1.2,0.2s0.6,0.3,0.8,0.5c0.2,0.2,0.4,0.5,0.5,0.8
	c0.1,0.3,0.1,0.7,0.2,1c0.1-0.3,0.4-0.5,0.7-0.9c0.3-0.3,0.6-0.6,0.9-0.8c0.3-0.2,0.7-0.5,1.2-0.6c0.5-0.1,0.9-0.3,1.2-0.3
	c0.5,0,0.9,0.1,1.3,0.2s0.7,0.3,0.9,0.6c0.2,0.3,0.4,0.5,0.5,0.9s0.1,0.7,0.1,1.1c0,0.3,0,0.5-0.1,0.8c-0.1,0.3-0.1,0.5-0.1,0.8
	L71.7,64.1z"/>
<path class="st1" d="M85.2,55.8c0,0.5-0.1,1-0.4,1.4c-0.3,0.5-0.7,0.8-1.2,1.1c-0.5,0.3-1.2,0.5-2,0.7c-0.9,0.2-1.8,0.3-3,0.3h-1.2
	c-0.1,0.3-0.1,0.5-0.1,0.7c-0.1,0.2,0,0.5,0,0.7c0,0.8,0.2,1.4,0.6,1.8s1,0.6,1.8,0.6c0.5,0,0.9-0.1,1.3-0.1
	c0.4-0.1,0.7-0.1,1.1-0.3c0.3-0.1,0.5-0.1,0.7-0.3c0.2-0.1,0.3-0.1,0.4-0.1c0.1,0,0.1,0,0.1,0.1c0,0.1,0.1,0.1,0.1,0.2
	c0,0.1,0,0.2,0,0.3c0,0.1-0.1,0.2-0.1,0.3s-0.1,0.2-0.1,0.3c-0.1,0.1-0.1,0.2-0.2,0.3c-0.1,0.1-0.3,0.2-0.5,0.3
	c-0.2,0.1-0.5,0.2-0.9,0.3c-0.3,0.1-0.7,0.1-1.1,0.2c-0.4,0.1-0.8,0.1-1.2,0.1c-0.7,0-1.3-0.1-1.8-0.3c-0.5-0.2-0.9-0.4-1.3-0.7
	c-0.4-0.3-0.6-0.7-0.8-1.2c-0.2-0.5-0.3-1.1-0.3-1.7c0-0.5,0.1-1.1,0.1-1.6c0.1-0.6,0.3-1.1,0.5-1.7c0.2-0.6,0.5-1.1,0.8-1.6
	s0.7-1,1.2-1.4c0.5-0.4,1-0.7,1.6-0.9s1.2-0.3,2-0.3c0.7,0,1.2,0.1,1.6,0.3c0.5,0.2,0.8,0.4,1.1,0.6c0.3,0.2,0.5,0.5,0.7,0.9
	C85,55.1,85.2,55.5,85.2,55.8z M83.2,55.9c0-0.4-0.1-0.7-0.5-1c-0.3-0.3-0.7-0.4-1.3-0.4c-0.5,0-0.9,0.1-1.3,0.3s-0.7,0.4-1.1,0.7
	c-0.3,0.3-0.5,0.7-0.8,1.1s-0.4,0.8-0.5,1.2H79c0.8,0,1.5-0.1,2-0.1c0.5-0.1,1-0.3,1.3-0.4c0.3-0.1,0.5-0.4,0.7-0.6
	C83.2,56.5,83.2,56.2,83.2,55.9z"/>
<path class="st1" d="M101.8,64.1c0,0.1,0,0.1-0.1,0.1s-0.1,0.1-0.2,0.1c-0.1,0.1-0.2,0.1-0.3,0.1c-0.1,0-0.3,0-0.5,0s-0.3,0-0.5,0
	c-0.1,0-0.2-0.1-0.3-0.1s-0.1-0.1-0.1-0.1c0-0.1,0-0.1,0-0.1l1.3-6.4c0.1-0.2,0.1-0.5,0.1-0.7c0-0.2,0.1-0.4,0.1-0.6
	c0-0.5-0.1-0.9-0.3-1.2c-0.2-0.3-0.5-0.5-1-0.5c-0.4,0-0.8,0.1-1.2,0.3c-0.4,0.2-0.8,0.5-1.2,1c-0.4,0.5-0.7,0.9-1,1.4
	c-0.3,0.5-0.5,1.2-0.7,1.9l-0.9,4.7c0,0.1-0.1,0.1-0.1,0.1s-0.1,0.1-0.2,0.1c-0.1,0.1-0.2,0.1-0.3,0.1c-0.1,0-0.3,0-0.5,0
	s-0.3,0-0.5,0c-0.1,0-0.2-0.1-0.3-0.1c-0.1,0-0.1-0.1-0.1-0.1s0-0.1,0-0.1l1.3-6.4c0.1-0.3,0.1-0.5,0.1-0.7c0.1-0.2,0-0.5,0-0.6
	c0-0.5-0.1-0.9-0.3-1.1c-0.2-0.3-0.5-0.4-1-0.4c-0.4,0-0.8,0.1-1.2,0.3c-0.4,0.2-0.8,0.5-1.2,1c-0.4,0.5-0.7,0.9-1,1.4
	s-0.6,1.1-0.7,1.8l-0.9,4.7c0,0.1-0.1,0.1-0.1,0.1s-0.1,0.1-0.2,0.1s-0.2,0.1-0.3,0.1c-0.1,0-0.3,0-0.5,0s-0.3,0-0.5,0
	c-0.1,0-0.2-0.1-0.3-0.1s-0.1-0.1-0.1-0.1c0-0.1,0-0.1,0-0.1l2.1-10.4l0.1-0.1c0.1-0.1,0.1-0.1,0.1-0.1c0.1-0.1,0.2-0.1,0.3-0.1
	s0.3,0,0.4,0s0.3,0,0.4,0s0.2,0,0.3,0.1l0.1,0.1v0.1l-0.4,2c0.1-0.3,0.3-0.5,0.6-0.9c0.3-0.3,0.6-0.6,0.9-0.8
	c0.3-0.2,0.7-0.5,1.2-0.6s0.9-0.3,1.3-0.3s0.9,0.1,1.2,0.2c0.3,0.1,0.6,0.3,0.8,0.5c0.2,0.2,0.4,0.5,0.5,0.8c0.1,0.3,0.1,0.7,0.2,1
	c0.1-0.3,0.4-0.5,0.7-0.9c0.3-0.3,0.6-0.6,0.9-0.8c0.3-0.2,0.7-0.5,1.2-0.6c0.5-0.1,0.9-0.3,1.2-0.3c0.5,0,0.9,0.1,1.3,0.2
	c0.4,0.1,0.7,0.3,0.9,0.6s0.4,0.5,0.5,0.9c0.1,0.4,0.1,0.7,0.1,1.1c0,0.3,0,0.5-0.1,0.8c-0.1,0.3-0.1,0.5-0.1,0.8L101.8,64.1z"/>
<path class="st1" d="M115.8,56.9c0,0.5-0.1,1-0.1,1.5s-0.2,1.1-0.4,1.7s-0.4,1.1-0.7,1.6c-0.3,0.5-0.7,1-1.1,1.4
	c-0.4,0.5-0.9,0.7-1.4,1c-0.6,0.3-1.1,0.4-1.8,0.4c-0.7,0-1.3-0.1-1.8-0.4c-0.5-0.3-0.9-0.7-1.3-1.1l-0.2,1c0,0.1-0.1,0.2-0.3,0.3
	c-0.2,0.1-0.4,0.1-0.7,0.1c-0.3,0-0.5,0-0.7-0.1c-0.1-0.1-0.1-0.1-0.1-0.3l3.1-15.5c0-0.1,0.1-0.1,0.1-0.1s0.1-0.1,0.2-0.1
	c0.1-0.1,0.2-0.1,0.3-0.1c0.1,0,0.3,0,0.5,0c0.2,0,0.3,0,0.5,0c0.1,0,0.2,0.1,0.3,0.1s0.1,0.1,0.1,0.1c0,0.1,0,0.1,0,0.1l-0.9,4.7
	c-0.1,0.2-0.1,0.4-0.1,0.6s-0.1,0.5-0.2,0.7c-0.1,0.2-0.1,0.4-0.2,0.6c-0.1,0.2-0.1,0.3-0.1,0.5c0.1-0.3,0.3-0.5,0.6-0.9
	c0.3-0.3,0.6-0.5,0.9-0.8c0.3-0.3,0.7-0.5,1.2-0.6c0.5-0.1,0.9-0.3,1.3-0.3s0.9,0.1,1.2,0.2c0.3,0.1,0.6,0.3,0.9,0.5
	c0.3,0.2,0.4,0.5,0.6,0.7c0.2,0.3,0.3,0.5,0.3,0.8c0.1,0.3,0.1,0.5,0.1,0.9C115.7,56.5,115.8,56.7,115.8,56.9z M113.8,57.1
	c0-0.2,0-0.5-0.1-0.7c-0.1-0.3-0.1-0.5-0.2-0.7c-0.1-0.2-0.3-0.4-0.5-0.6c-0.2-0.2-0.5-0.3-0.9-0.3c-0.4,0-0.9,0.1-1.2,0.3
	c-0.4,0.2-0.9,0.6-1.2,1s-0.7,0.9-1,1.5c-0.3,0.6-0.5,1.2-0.7,1.8l-0.4,1.9c0.4,0.5,0.7,0.9,1.2,1.2s0.9,0.4,1.4,0.4
	c0.4,0,0.8-0.1,1.1-0.3c0.3-0.2,0.6-0.5,0.9-0.7s0.5-0.7,0.7-1.1c0.2-0.4,0.3-0.8,0.5-1.2c0.1-0.5,0.2-0.9,0.3-1.3
	C113.8,57.8,113.8,57.4,113.8,57.1z"/>
<path class="st1" d="M127.4,55.8c0,0.5-0.1,1-0.4,1.4c-0.3,0.5-0.7,0.8-1.2,1.1c-0.5,0.3-1.2,0.5-2,0.7c-0.9,0.2-1.8,0.3-3,0.3h-1.2
	c-0.1,0.3-0.1,0.5-0.1,0.7c-0.1,0.2,0,0.5,0,0.7c0,0.8,0.2,1.4,0.6,1.8c0.4,0.4,1,0.6,1.8,0.6c0.5,0,0.9-0.1,1.3-0.1
	c0.4-0.1,0.7-0.1,1.1-0.3c0.3-0.1,0.5-0.1,0.7-0.3c0.2-0.1,0.3-0.1,0.4-0.1c0.1,0,0.1,0,0.1,0.1c0,0.1,0.1,0.1,0.1,0.2
	c0,0.1,0,0.2,0,0.3c0,0.1-0.1,0.2-0.1,0.3s-0.1,0.2-0.1,0.3s-0.1,0.2-0.2,0.3c-0.1,0.1-0.3,0.2-0.5,0.3c-0.2,0.1-0.5,0.2-0.9,0.3
	c-0.3,0.1-0.7,0.1-1.1,0.2c-0.4,0.1-0.8,0.1-1.2,0.1c-0.7,0-1.3-0.1-1.8-0.3s-0.9-0.4-1.3-0.7c-0.4-0.3-0.6-0.7-0.8-1.2
	c-0.2-0.5-0.3-1.1-0.3-1.7c0-0.5,0.1-1.1,0.1-1.6c0.1-0.6,0.3-1.1,0.5-1.7c0.2-0.6,0.5-1.1,0.8-1.6s0.7-1,1.2-1.4
	c0.5-0.4,1-0.7,1.6-0.9s1.2-0.3,2-0.3c0.7,0,1.2,0.1,1.6,0.3c0.5,0.2,0.8,0.4,1.1,0.6c0.3,0.2,0.5,0.5,0.7,0.9
	C127.2,55.1,127.4,55.5,127.4,55.8z M125.5,55.9c0-0.4-0.1-0.7-0.5-1s-0.7-0.4-1.3-0.4c-0.5,0-0.9,0.1-1.3,0.3
	c-0.4,0.2-0.7,0.4-1.1,0.7c-0.3,0.3-0.5,0.7-0.8,1.1c-0.3,0.4-0.4,0.8-0.5,1.2h1.2c0.8,0,1.5-0.1,2-0.1c0.5-0.1,1-0.3,1.3-0.4
	s0.5-0.4,0.7-0.6C125.5,56.5,125.5,56.2,125.5,55.9z"/>
<path class="st1" d="M136.7,53.7c0,0,0,0.1,0,0.2s0,0.2-0.1,0.3c-0.1,0.1-0.1,0.3-0.1,0.3c0,0.1-0.1,0.3-0.1,0.3
	c-0.1,0.1-0.1,0.2-0.1,0.3c-0.1,0.1-0.1,0.1-0.2,0.1c-0.1,0-0.1,0-0.2-0.1c-0.1-0.1-0.1-0.1-0.3-0.1s-0.2-0.1-0.3-0.1
	c-0.1,0-0.3-0.1-0.4-0.1c-0.3,0-0.6,0.1-0.9,0.3c-0.3,0.2-0.7,0.5-1,0.9s-0.7,0.9-0.9,1.4c-0.3,0.6-0.4,1.1-0.5,1.7l-0.9,4.6
	c0,0.1-0.1,0.1-0.1,0.1s-0.1,0.1-0.2,0.1c-0.1,0.1-0.2,0.1-0.3,0.1c-0.1,0-0.3,0-0.5,0c-0.2,0-0.3,0-0.5,0s-0.2-0.1-0.3-0.1
	s-0.1-0.1-0.1-0.1s0-0.1,0-0.1l2-10.4l0.1-0.1c0.1-0.1,0.1-0.1,0.2-0.1c0.1-0.1,0.2-0.1,0.3-0.1s0.3,0,0.4,0s0.3,0,0.4,0
	c0.1,0,0.2,0,0.3,0.1l0.1,0.1v0.1l-0.4,1.9c0.2-0.3,0.4-0.6,0.7-0.9c0.3-0.3,0.5-0.5,0.8-0.8c0.3-0.3,0.6-0.4,0.9-0.5
	s0.6-0.2,0.9-0.2c0.1,0,0.3,0,0.4,0c0.1,0,0.3,0.1,0.4,0.1c0.1,0,0.2,0.1,0.3,0.1c0.1,0,0.1,0.1,0.2,0.1
	C136.9,53.4,136.7,53.6,136.7,53.7z"/>
<path class="st1" d="M152.8,57.1c0,0.6-0.1,1.2-0.1,1.8c-0.1,0.6-0.3,1.2-0.5,1.7c-0.2,0.5-0.5,1.1-0.9,1.6
	c-0.3,0.5-0.7,0.9-1.2,1.2c-0.5,0.3-1,0.7-1.6,0.9c-0.6,0.2-1.2,0.3-2,0.3s-1.4-0.1-1.9-0.3s-1-0.5-1.3-0.8
	c-0.3-0.3-0.6-0.7-0.7-1.2c-0.1-0.5-0.3-1.1-0.3-1.6c0-0.6,0.1-1.2,0.1-1.8c0.1-0.6,0.3-1.2,0.5-1.7c0.2-0.5,0.5-1.1,0.9-1.6
	s0.7-0.9,1.2-1.2c0.5-0.3,1-0.7,1.6-0.9s1.2-0.3,2-0.3s1.4,0.1,1.9,0.3c0.5,0.2,1,0.5,1.3,0.8c0.3,0.3,0.6,0.7,0.8,1.2
	C152.8,56,152.8,56.5,152.8,57.1z M150.8,57.2c0-0.4-0.1-0.7-0.1-1.1c-0.1-0.3-0.2-0.6-0.4-0.8c-0.2-0.2-0.5-0.4-0.7-0.5
	c-0.3-0.1-0.7-0.2-1.1-0.2s-0.9,0.1-1.2,0.3c-0.4,0.2-0.7,0.4-1,0.7c-0.3,0.3-0.5,0.6-0.8,1c-0.3,0.4-0.4,0.8-0.5,1.2
	c-0.1,0.4-0.3,0.9-0.3,1.3c-0.1,0.5-0.1,0.9-0.1,1.3s0.1,0.7,0.1,1.1c0.1,0.3,0.2,0.6,0.4,0.8c0.2,0.2,0.5,0.4,0.7,0.5
	c0.3,0.1,0.7,0.2,1.1,0.2s0.9-0.1,1.2-0.3s0.7-0.4,1-0.7c0.3-0.3,0.5-0.6,0.8-1c0.3-0.4,0.4-0.8,0.5-1.2s0.3-0.9,0.3-1.3
	C150.7,58.1,150.8,57.6,150.8,57.2z"/>
<path class="st1" d="M163.1,48.9c0,0,0,0.1,0,0.1c0,0.1,0,0.1,0,0.2s0,0.2-0.1,0.3c-0.1,0.1-0.1,0.2-0.1,0.3c0,0.1-0.1,0.1-0.1,0.2
	l-0.1,0.1c-0.1,0-0.1,0-0.2-0.1c-0.1-0.1-0.2-0.1-0.3-0.1s-0.3-0.1-0.4-0.1s-0.3-0.1-0.5-0.1c-0.3,0-0.6,0.1-0.9,0.1
	c-0.3,0.1-0.5,0.3-0.6,0.5c-0.1,0.2-0.3,0.5-0.5,0.8c-0.1,0.3-0.2,0.7-0.3,1.1l-0.2,1.1h2.3c0.1,0,0.1,0,0.2,0.1
	c0.1,0.1,0.1,0.1,0.1,0.3c0,0.1,0,0.2,0,0.3c0,0.1-0.1,0.2-0.1,0.3s-0.1,0.2-0.1,0.3s-0.1,0.1-0.1,0.2c-0.1,0.1-0.1,0.1-0.1,0.1
	l-0.1,0.1h-2.4l-2,9.9c-0.1,0.7-0.3,1.2-0.5,1.7c-0.2,0.5-0.5,0.9-0.8,1.2c-0.3,0.3-0.7,0.5-1.1,0.7s-0.9,0.2-1.4,0.2
	c-0.3,0-0.7,0-0.9-0.1c-0.2-0.1-0.3-0.1-0.4-0.1l-0.1-0.1c0-0.1,0-0.1,0-0.2c0,0,0-0.1,0-0.1s0-0.1,0.1-0.3c0.1-0.1,0.1-0.2,0.1-0.3
	c0-0.1,0.1-0.2,0.1-0.3s0.1-0.1,0.1-0.2l0.1-0.1h0.1l0.1,0.1c0.1,0,0.1,0,0.2,0.1s0.2,0,0.3,0c0.3,0,0.6-0.1,0.9-0.1
	c0.3-0.1,0.5-0.3,0.6-0.5c0.1-0.2,0.3-0.5,0.4-0.8s0.2-0.7,0.3-1.2l1.9-9.5h-1.5c-0.1,0-0.1,0-0.2-0.1c-0.1-0.1-0.1-0.1-0.1-0.3
	c0-0.1,0-0.1,0-0.2c0-0.1,0-0.2,0.1-0.3c0.1-0.1,0.1-0.2,0.1-0.3c0-0.1,0.1-0.1,0.1-0.3c0.1-0.1,0.1-0.1,0.1-0.2
	c0.1-0.1,0.1-0.1,0.2-0.1h1.4l0.3-1.4c0.1-0.7,0.3-1.2,0.5-1.6c0.2-0.5,0.5-0.9,0.9-1.2c0.3-0.3,0.7-0.5,1.1-0.7s0.9-0.2,1.4-0.2
	c0.2,0,0.3,0,0.5,0s0.3,0.1,0.5,0.1c0.2,0,0.3,0.1,0.4,0.1c0.1,0.1,0.2,0.1,0.3,0.1c0.1,0.1,0.1,0.1,0.1,0.1
	C163.2,48.7,163.1,48.8,163.1,48.9z"/>
<path class="st1" d="M180.3,54.7c0,0.5-0.1,1.1-0.1,1.6c-0.1,0.5-0.2,1.1-0.3,1.6c-0.1,0.5-0.3,1.1-0.6,1.6
	c-0.3,0.5-0.5,1.1-0.9,1.5c-0.3,0.5-0.7,0.9-1.2,1.3c-0.5,0.4-1,0.7-1.5,1.1c-0.5,0.3-1.2,0.5-1.9,0.7c-0.7,0.1-1.6,0.3-2.6,0.3H168
	c-0.1,0-0.2,0-0.3-0.1c-0.1-0.1-0.1-0.1-0.2-0.1c-0.1-0.1-0.1-0.1-0.1-0.3c0-0.1,0-0.3,0-0.4l2.6-13.4c0.1-0.3,0.2-0.5,0.3-0.7
	c0.1-0.1,0.4-0.2,0.6-0.2h3.2c1.1,0,2.1,0.1,2.8,0.4c0.7,0.3,1.4,0.6,1.9,1.1c0.5,0.5,0.9,1.1,1.1,1.7
	C180.2,53.1,180.3,54,180.3,54.7z M178.2,54.9c0-0.6-0.1-1.1-0.3-1.6c-0.2-0.5-0.4-0.9-0.7-1.2s-0.8-0.6-1.3-0.8s-1.2-0.3-2.1-0.3
	h-2.1l-2.3,11.6h2c0.9,0,1.7-0.1,2.4-0.3c0.7-0.2,1.2-0.5,1.6-0.9c0.5-0.4,0.9-0.9,1.2-1.4c0.3-0.5,0.6-1.1,0.9-1.6
	c0.3-0.6,0.4-1.2,0.5-1.8C178.1,56.1,178.2,55.5,178.2,54.9z"/>
<path class="st1" d="M191.5,55.8c0,0.5-0.1,1-0.4,1.4c-0.3,0.5-0.7,0.8-1.2,1.1c-0.5,0.3-1.2,0.5-2,0.7c-0.9,0.2-1.8,0.3-3,0.3h-1.2
	c-0.1,0.3-0.1,0.5-0.1,0.7c-0.1,0.2,0,0.5,0,0.7c0,0.8,0.2,1.4,0.6,1.8s1,0.6,1.8,0.6c0.5,0,0.9-0.1,1.3-0.1
	c0.4-0.1,0.7-0.1,1.1-0.3c0.3-0.1,0.5-0.1,0.7-0.3c0.2-0.1,0.3-0.1,0.4-0.1s0.1,0,0.1,0.1c0,0.1,0.1,0.1,0.1,0.2c0,0.1,0,0.2,0,0.3
	c0,0.1-0.1,0.2-0.1,0.3s-0.1,0.2-0.1,0.3s-0.1,0.2-0.2,0.3c-0.1,0.1-0.3,0.2-0.5,0.3c-0.2,0.1-0.5,0.2-0.9,0.3s-0.7,0.1-1.1,0.2
	c-0.4,0.1-0.8,0.1-1.2,0.1c-0.7,0-1.3-0.1-1.8-0.3c-0.5-0.2-0.9-0.4-1.3-0.7c-0.4-0.3-0.6-0.7-0.8-1.2c-0.2-0.5-0.3-1.1-0.3-1.7
	c0-0.5,0.1-1.1,0.1-1.6c0.1-0.6,0.3-1.1,0.5-1.7c0.2-0.6,0.5-1.1,0.8-1.6s0.7-1,1.2-1.4c0.5-0.4,1-0.7,1.6-0.9
	c0.6-0.2,1.2-0.3,2-0.3c0.7,0,1.2,0.1,1.6,0.3c0.5,0.2,0.8,0.4,1.1,0.6c0.3,0.2,0.5,0.5,0.7,0.9C191.3,55.1,191.5,55.5,191.5,55.8z
	 M189.5,55.9c0-0.4-0.1-0.7-0.5-1s-0.7-0.4-1.3-0.4c-0.5,0-0.9,0.1-1.3,0.3s-0.7,0.4-1.1,0.7c-0.3,0.3-0.5,0.7-0.8,1.1
	c-0.3,0.4-0.4,0.8-0.5,1.2h1.2c0.8,0,1.5-0.1,2-0.1c0.5-0.1,1-0.3,1.3-0.4c0.3-0.1,0.5-0.4,0.7-0.6
	C189.5,56.5,189.5,56.2,189.5,55.9z"/>
<path class="st1" d="M194.7,64.1c0,0.1-0.1,0.1-0.1,0.1s-0.1,0.1-0.2,0.1s-0.2,0.1-0.3,0.1c-0.1,0-0.3,0-0.5,0c-0.2,0-0.3,0-0.5,0
	c-0.1,0-0.2-0.1-0.3-0.1s-0.1-0.1-0.1-0.1c0-0.1,0-0.1,0-0.1l3.1-15.5c0-0.1,0.1-0.1,0.1-0.1s0.1-0.1,0.2-0.1
	c0.1-0.1,0.2-0.1,0.3-0.1c0.1,0,0.3,0,0.5,0c0.2,0,0.3,0,0.5,0c0.1,0,0.2,0.1,0.3,0.1c0.1,0,0.1,0.1,0.1,0.1c0,0.1,0,0.1,0,0.1
	L194.7,64.1z"/>
<path class="st1" d="M208.8,57.1c0,0.6-0.1,1.2-0.1,1.8c-0.1,0.6-0.3,1.2-0.5,1.7c-0.2,0.5-0.5,1.1-0.9,1.6
	c-0.3,0.5-0.7,0.9-1.2,1.2c-0.5,0.3-1,0.7-1.6,0.9s-1.2,0.3-2,0.3s-1.4-0.1-1.9-0.3s-1-0.5-1.3-0.8c-0.3-0.3-0.6-0.7-0.7-1.2
	c-0.1-0.5-0.3-1.1-0.3-1.6c0-0.6,0.1-1.2,0.1-1.8c0.1-0.6,0.3-1.2,0.5-1.7c0.2-0.5,0.5-1.1,0.9-1.6s0.7-0.9,1.2-1.2
	c0.5-0.3,1-0.7,1.6-0.9c0.6-0.2,1.2-0.3,2-0.3s1.4,0.1,1.9,0.3c0.5,0.2,1,0.5,1.3,0.8c0.3,0.3,0.6,0.7,0.8,1.2
	S208.8,56.5,208.8,57.1z M206.8,57.2c0-0.4-0.1-0.7-0.1-1.1c-0.1-0.3-0.2-0.6-0.4-0.8c-0.2-0.2-0.5-0.4-0.7-0.5
	c-0.3-0.1-0.7-0.2-1.1-0.2c-0.5,0-0.9,0.1-1.2,0.3c-0.4,0.2-0.7,0.4-1,0.7c-0.3,0.3-0.5,0.6-0.8,1c-0.3,0.4-0.4,0.8-0.5,1.2
	s-0.3,0.9-0.3,1.3c-0.1,0.5-0.1,0.9-0.1,1.3s0.1,0.7,0.1,1.1c0.1,0.3,0.2,0.6,0.4,0.8c0.2,0.2,0.5,0.4,0.7,0.5
	c0.3,0.1,0.7,0.2,1.1,0.2s0.9-0.1,1.2-0.3s0.7-0.4,1-0.7c0.3-0.3,0.5-0.6,0.8-1s0.4-0.8,0.5-1.2s0.3-0.9,0.3-1.3
	S206.8,57.6,206.8,57.2z"/>
<path class="st1" d="M214.7,54.9l-2,9.9c-0.1,0.7-0.3,1.2-0.5,1.7c-0.2,0.5-0.5,0.9-0.8,1.2c-0.3,0.3-0.7,0.5-1.1,0.7
	c-0.4,0.2-0.9,0.2-1.4,0.2c-0.3,0-0.7,0-0.9-0.1c-0.2-0.1-0.3-0.1-0.4-0.1l-0.1-0.1c0-0.1,0-0.1,0-0.2c0,0,0-0.1,0-0.1
	c0-0.1,0-0.1,0.1-0.3s0.1-0.2,0.1-0.3s0.1-0.2,0.1-0.3c0-0.1,0.1-0.1,0.1-0.2l0.1-0.1h0.1l0.1,0.1c0.1,0,0.1,0,0.2,0.1
	c0.1,0.1,0.2,0,0.3,0c0.3,0,0.6-0.1,0.9-0.1c0.3-0.1,0.5-0.3,0.6-0.5c0.1-0.2,0.3-0.5,0.4-0.8c0.1-0.3,0.2-0.7,0.3-1.2l1.9-9.5h-1.5
	c-0.1,0-0.1,0-0.2-0.1c-0.1-0.1-0.1-0.1-0.1-0.3c0-0.1,0-0.1,0-0.2c0-0.1,0-0.2,0.1-0.3c0.1-0.1,0.1-0.2,0.1-0.3
	c0-0.1,0.1-0.1,0.1-0.3c0.1-0.1,0.1-0.1,0.1-0.2c0.1-0.1,0.1-0.1,0.2-0.1h1.4l0.3-1.3c0.1-0.7,0.3-1.2,0.5-1.6
	c0.2-0.5,0.5-0.9,0.9-1.2c0.3-0.3,0.7-0.5,1.1-0.7c0.4-0.2,0.9-0.3,1.4-0.3c0.2,0,0.3,0,0.5,0c0.2,0,0.3,0.1,0.5,0.1
	c0.2,0,0.3,0.1,0.4,0.1c0.1,0.1,0.2,0.1,0.3,0.1c0.1,0.1,0.1,0.1,0.1,0.1c0,0.1,0.1,0.1,0.1,0.2c0,0,0,0.1,0,0.1c0,0.1,0,0.1,0,0.2
	s0,0.2-0.1,0.3c-0.1,0.1-0.1,0.2-0.1,0.3s-0.1,0.1-0.1,0.2l-0.1,0.1c-0.1,0-0.1,0-0.2-0.1c-0.1-0.1-0.2-0.1-0.3-0.1
	c-0.1,0-0.3-0.1-0.4-0.1c-0.1,0-0.3-0.1-0.5-0.1c-0.3,0-0.7,0.1-0.9,0.1c-0.2,0.1-0.5,0.3-0.6,0.5c-0.1,0.2-0.3,0.5-0.5,0.8
	c-0.1,0.3-0.2,0.7-0.3,1.1l-0.2,0.9h4.7l0.3-1.4c0.1-0.7,0.3-1.2,0.5-1.6c0.2-0.5,0.5-0.9,0.9-1.2c0.3-0.3,0.7-0.5,1.1-0.7
	c0.4-0.2,0.9-0.3,1.4-0.3c0.2,0,0.3,0,0.5,0c0.2,0,0.3,0.1,0.5,0.1c0.1,0,0.3,0.1,0.3,0.1c0.1,0.1,0.2,0.1,0.2,0.1
	c0.1,0.1,0.1,0.1,0.1,0.1c0,0.1,0,0.1,0,0.2c0,0,0,0.1,0,0.1c0,0.1,0,0.1,0,0.2s0,0.2-0.1,0.3s-0.1,0.2-0.1,0.3
	c0,0.1-0.1,0.1-0.1,0.2l-0.1,0.1c-0.1,0-0.1,0-0.2-0.1c-0.1-0.1-0.1-0.1-0.3-0.1c-0.1,0-0.2-0.1-0.3-0.1c-0.1,0-0.3-0.1-0.5-0.1
	c-0.3,0-0.6,0.1-0.8,0.1c-0.2,0.1-0.4,0.3-0.6,0.5c-0.2,0.2-0.3,0.5-0.4,0.8c-0.1,0.3-0.2,0.7-0.3,1.1l-0.2,1.1h6
	c0.2,0,0.3,0.1,0.4,0.1c0.1,0.1,0.1,0.3,0.1,0.5l-2,10.1c0,0.1-0.1,0.1-0.1,0.1s-0.1,0.1-0.2,0.1c-0.1,0.1-0.2,0.1-0.3,0.1
	c-0.1,0-0.3,0-0.5,0c-0.2,0-0.3,0-0.5,0c-0.1,0-0.2-0.1-0.3-0.1S224,64,224,63.9c0-0.1,0-0.1,0-0.1l1.8-9.1h-4.7l-1.9,9.5
	c-0.1,0.7-0.3,1.3-0.5,1.8c-0.2,0.5-0.5,0.9-0.9,1.2c-0.3,0.3-0.7,0.6-1.1,0.7c-0.4,0.1-0.9,0.3-1.4,0.3c-0.4,0-0.7,0-1-0.1
	c-0.3-0.1-0.5-0.1-0.6-0.3c-0.1-0.1-0.1-0.2-0.1-0.3c0-0.1,0-0.1,0-0.2c0-0.1,0-0.1,0.1-0.3s0.1-0.2,0.1-0.3c0-0.1,0.1-0.2,0.1-0.3
	s0.1-0.1,0.1-0.2l0.1-0.1c0.1,0,0.1,0,0.2,0s0.1,0.1,0.3,0.1s0.2,0.1,0.3,0.1c0.1,0,0.3,0.1,0.4,0.1c0.3,0,0.6-0.1,0.8-0.1
	s0.5-0.3,0.6-0.5s0.3-0.5,0.4-0.8c0.1-0.3,0.2-0.7,0.3-1.1l1.9-9.4h-4.6V54.9z M229,50.1c-0.1,0.2-0.1,0.4-0.1,0.5
	c-0.1,0.1-0.1,0.3-0.3,0.3c-0.1,0.1-0.3,0.1-0.4,0.2c-0.1,0.1-0.3,0.1-0.6,0.1c-0.3,0-0.4,0-0.6-0.1c-0.2-0.1-0.3-0.1-0.3-0.2
	c-0.1-0.1-0.1-0.2-0.1-0.3s0-0.3,0.1-0.5s0.1-0.4,0.2-0.5c0.1-0.1,0.1-0.3,0.3-0.3c0.1-0.1,0.3-0.1,0.4-0.2s0.3-0.1,0.6-0.1
	c0.2,0,0.4,0,0.5,0.1c0.1,0.1,0.3,0.1,0.3,0.2c0.1,0.1,0.1,0.2,0.1,0.3S229.1,49.9,229,50.1z"/>
<path class="st1" d="M238.7,54.6c0,0.1,0,0.3-0.1,0.5c-0.1,0.2-0.1,0.3-0.1,0.4c-0.1,0.1-0.1,0.3-0.2,0.3c-0.1,0.1-0.1,0.1-0.3,0.1
	c-0.1,0-0.2-0.1-0.3-0.2s-0.3-0.3-0.5-0.4s-0.5-0.3-0.7-0.4c-0.3-0.1-0.7-0.2-1.1-0.2c-0.5,0-0.9,0.1-1.3,0.3s-0.7,0.5-1,0.8
	c-0.3,0.3-0.5,0.7-0.7,1.1s-0.3,0.9-0.5,1.2c-0.1,0.4-0.2,0.9-0.3,1.2s-0.1,0.7-0.1,1.1c0,0.8,0.2,1.4,0.5,1.8s0.9,0.6,1.6,0.6
	c0.5,0,0.9-0.1,1.3-0.2c0.4-0.1,0.7-0.3,0.9-0.4c0.3-0.1,0.5-0.3,0.6-0.4c0.1-0.1,0.3-0.2,0.5-0.2c0.1,0,0.1,0,0.1,0.1
	c0,0.1,0.1,0.1,0.1,0.3c0,0.1,0,0.2,0,0.3s-0.1,0.3-0.1,0.4S237,63,237,63.1c-0.1,0.1-0.1,0.2-0.2,0.3c-0.1,0.1-0.3,0.2-0.5,0.3
	s-0.5,0.3-0.8,0.4c-0.3,0.1-0.7,0.2-1,0.3c-0.3,0.1-0.7,0.1-1.1,0.1c-1.2,0-2.2-0.3-2.8-0.9s-0.9-1.6-0.9-2.8c0-0.5,0.1-1,0.1-1.5
	c0.1-0.5,0.2-1.1,0.4-1.7c0.2-0.6,0.5-1.1,0.7-1.6c0.3-0.5,0.7-1,1.1-1.4c0.5-0.5,0.9-0.7,1.5-1c0.6-0.3,1.2-0.4,2-0.4
	c0.3,0,0.6,0,0.9,0.1c0.3,0.1,0.5,0.1,0.8,0.2c0.3,0.1,0.5,0.2,0.7,0.3s0.4,0.3,0.5,0.3c0.1,0.1,0.2,0.2,0.2,0.3
	C238.6,54.4,238.7,54.5,238.7,54.6z"/>
<path class="st1" d="M249.2,55.8c0,0.5-0.1,1-0.4,1.4c-0.3,0.5-0.7,0.8-1.2,1.1c-0.5,0.3-1.2,0.5-2,0.7c-0.9,0.2-1.8,0.3-3,0.3h-1.2
	c-0.1,0.3-0.1,0.5-0.1,0.7c-0.1,0.2,0,0.5,0,0.7c0,0.8,0.2,1.4,0.6,1.8c0.4,0.4,1,0.6,1.8,0.6c0.5,0,0.9-0.1,1.3-0.1
	c0.4-0.1,0.7-0.1,1.1-0.3c0.3-0.1,0.5-0.1,0.7-0.3c0.2-0.1,0.3-0.1,0.4-0.1c0.1,0,0.1,0,0.1,0.1c0,0.1,0.1,0.1,0.1,0.2
	c0,0.1,0,0.2,0,0.3c0,0.1-0.1,0.2-0.1,0.3s-0.1,0.2-0.1,0.3c-0.1,0.1-0.1,0.2-0.2,0.3c-0.1,0.1-0.3,0.2-0.5,0.3
	c-0.2,0.1-0.5,0.2-0.9,0.3s-0.7,0.1-1.1,0.2c-0.4,0.1-0.8,0.1-1.2,0.1c-0.7,0-1.3-0.1-1.8-0.3c-0.5-0.2-0.9-0.4-1.3-0.7
	c-0.4-0.3-0.6-0.7-0.8-1.2c-0.2-0.5-0.3-1.1-0.3-1.7c0-0.5,0.1-1.1,0.1-1.6c0.1-0.6,0.3-1.1,0.5-1.7c0.2-0.6,0.5-1.1,0.8-1.6
	c0.3-0.5,0.7-1,1.2-1.4s1-0.7,1.6-0.9c0.6-0.2,1.2-0.3,2-0.3c0.7,0,1.2,0.1,1.6,0.3c0.5,0.2,0.8,0.4,1.1,0.6
	c0.3,0.2,0.5,0.5,0.7,0.9C249,55.1,249.2,55.5,249.2,55.8z M247.2,55.9c0-0.4-0.1-0.7-0.5-1c-0.3-0.3-0.7-0.4-1.3-0.4
	c-0.5,0-0.9,0.1-1.3,0.3c-0.4,0.2-0.7,0.4-1.1,0.7c-0.3,0.3-0.5,0.7-0.8,1.1c-0.3,0.4-0.4,0.8-0.5,1.2h1.2c0.8,0,1.5-0.1,2-0.1
	c0.5-0.1,1-0.3,1.3-0.4s0.5-0.4,0.7-0.6C247.2,56.5,247.2,56.2,247.2,55.9z"/>
<path class="st1" d="M270,51c0,0.1,0,0.1,0,0.2s0,0.2-0.1,0.3c-0.1,0.1-0.1,0.2-0.1,0.3c0,0.1-0.1,0.2-0.1,0.3
	c-0.1,0.1-0.1,0.1-0.1,0.2l-0.1,0.1c-0.1,0-0.3-0.1-0.5-0.2s-0.5-0.3-0.8-0.5c-0.3-0.2-0.7-0.3-1.2-0.5s-1.1-0.2-1.7-0.2
	s-1.3,0.1-1.9,0.3s-1.1,0.5-1.6,0.9c-0.5,0.4-0.9,0.8-1.3,1.2c-0.4,0.5-0.7,1.1-1,1.6c-0.3,0.5-0.5,1.2-0.6,1.8s-0.2,1.2-0.2,1.9
	s0.1,1.2,0.3,1.8s0.5,1,0.9,1.3c0.4,0.3,0.8,0.6,1.3,0.8c0.5,0.2,1.1,0.3,1.8,0.3c0.5,0,1-0.1,1.5-0.2c0.5-0.1,1-0.3,1.4-0.5
	l0.9-4.3h-3.6c-0.1,0-0.1,0-0.2-0.1c-0.1-0.1-0.1-0.1-0.1-0.3c0-0.1,0-0.1,0-0.2s0-0.2,0.1-0.3c0.1-0.1,0.1-0.2,0.1-0.3
	c0-0.1,0.1-0.2,0.1-0.3c0.1-0.1,0.1-0.1,0.1-0.2c0.1-0.1,0.1-0.1,0.2-0.1h4.7c0.2,0,0.4,0.1,0.5,0.2s0.1,0.3,0.1,0.6l-1.2,5.8
	c0,0.1-0.1,0.3-0.1,0.3c-0.1,0.1-0.1,0.2-0.2,0.3c-0.1,0.1-0.3,0.2-0.5,0.3s-0.7,0.3-1.1,0.4c-0.4,0.1-0.9,0.3-1.4,0.4
	c-0.5,0.1-1.1,0.1-1.7,0.1c-1,0-1.9-0.1-2.6-0.4c-0.7-0.3-1.4-0.7-1.9-1.1c-0.5-0.5-0.9-1.1-1.2-1.8c-0.3-0.7-0.4-1.5-0.4-2.4
	s0.1-1.6,0.3-2.4c0.2-0.8,0.5-1.6,0.8-2.3c0.3-0.7,0.8-1.4,1.3-2c0.5-0.6,1.1-1.1,1.8-1.6c0.7-0.5,1.4-0.8,2.2-1.1
	c0.8-0.3,1.7-0.4,2.6-0.4c0.5,0,1.1,0.1,1.5,0.1c0.5,0.1,0.9,0.2,1.2,0.3c0.3,0.1,0.7,0.3,0.9,0.5c0.3,0.2,0.5,0.3,0.5,0.4
	c0.1,0.1,0.1,0.2,0.2,0.3C269.8,50.9,270,50.9,270,51z"/>
<path class="st1" d="M278.8,53.7c0,0,0,0.1,0,0.2s0,0.2-0.1,0.3s-0.1,0.3-0.1,0.3c0,0.1-0.1,0.3-0.1,0.3c-0.1,0.1-0.1,0.2-0.1,0.3
	c-0.1,0.1-0.1,0.1-0.2,0.1s-0.1,0-0.2-0.1c-0.1-0.1-0.1-0.1-0.3-0.1s-0.2-0.1-0.3-0.1c-0.1,0-0.3-0.1-0.4-0.1
	c-0.3,0-0.6,0.1-0.9,0.3c-0.3,0.2-0.7,0.5-1,0.9s-0.7,0.9-0.9,1.4c-0.3,0.6-0.4,1.1-0.5,1.7l-0.9,4.6c0,0.1-0.1,0.1-0.1,0.1
	s-0.1,0.1-0.2,0.1c-0.1,0.1-0.2,0.1-0.3,0.1c-0.1,0-0.3,0-0.5,0s-0.3,0-0.5,0s-0.2-0.1-0.3-0.1s-0.1-0.1-0.1-0.1s0-0.1,0-0.1l2-10.4
	l0.1-0.1c0.1-0.1,0.1-0.1,0.2-0.1s0.2-0.1,0.3-0.1s0.3,0,0.4,0c0.1,0,0.3,0,0.4,0c0.1,0,0.2,0,0.3,0.1l0.1,0.1v0.1l-0.4,1.9
	c0.2-0.3,0.4-0.6,0.7-0.9c0.3-0.3,0.5-0.5,0.8-0.8c0.3-0.3,0.6-0.4,0.9-0.5s0.6-0.2,0.9-0.2c0.1,0,0.3,0,0.4,0s0.3,0.1,0.4,0.1
	c0.1,0,0.2,0.1,0.3,0.1c0.1,0,0.1,0.1,0.2,0.1C278.9,53.4,278.8,53.6,278.8,53.7z"/>
<path class="st1" d="M289.5,57.1c0,0.6-0.1,1.2-0.1,1.8c-0.1,0.6-0.3,1.2-0.5,1.7c-0.2,0.5-0.5,1.1-0.9,1.6
	c-0.3,0.5-0.7,0.9-1.2,1.2c-0.5,0.3-1,0.7-1.6,0.9s-1.2,0.3-2,0.3c-0.7,0-1.4-0.1-1.9-0.3c-0.5-0.2-1-0.5-1.3-0.8
	c-0.3-0.3-0.6-0.7-0.7-1.2c-0.1-0.5-0.3-1.1-0.3-1.6c0-0.6,0.1-1.2,0.1-1.8c0.1-0.6,0.3-1.2,0.5-1.7c0.2-0.5,0.5-1.1,0.9-1.6
	s0.7-0.9,1.2-1.2c0.5-0.3,1-0.7,1.6-0.9c0.6-0.2,1.2-0.3,2-0.3s1.4,0.1,1.9,0.3c0.5,0.2,1,0.5,1.3,0.8c0.3,0.3,0.6,0.7,0.8,1.2
	S289.5,56.5,289.5,57.1z M287.5,57.2c0-0.4-0.1-0.7-0.1-1.1c-0.1-0.3-0.2-0.6-0.4-0.8c-0.2-0.2-0.5-0.4-0.7-0.5
	c-0.3-0.1-0.7-0.2-1.1-0.2c-0.5,0-0.9,0.1-1.2,0.3c-0.4,0.2-0.7,0.4-1,0.7s-0.5,0.6-0.8,1c-0.3,0.4-0.4,0.8-0.5,1.2
	s-0.3,0.9-0.3,1.3c-0.1,0.5-0.1,0.9-0.1,1.3s0.1,0.7,0.1,1.1c0.1,0.3,0.2,0.6,0.4,0.8c0.2,0.2,0.5,0.4,0.7,0.5
	c0.3,0.1,0.7,0.2,1.1,0.2c0.5,0,0.9-0.1,1.2-0.3c0.3-0.2,0.7-0.4,1-0.7c0.3-0.3,0.5-0.6,0.8-1c0.3-0.4,0.4-0.8,0.5-1.2
	s0.3-0.9,0.3-1.3S287.5,57.6,287.5,57.2z"/>
<path class="st1" d="M299.8,64.1c0,0.1,0,0.1-0.1,0.1c-0.1,0-0.1,0.1-0.1,0.1s-0.1,0.1-0.3,0.1s-0.3,0-0.4,0c-0.1,0-0.3,0-0.4,0
	c-0.1,0-0.2-0.1-0.3-0.1l-0.1-0.1c0-0.1,0-0.1,0-0.1l0.4-2c-0.1,0.3-0.3,0.5-0.6,0.9c-0.3,0.3-0.6,0.5-0.9,0.8s-0.7,0.5-1.2,0.6
	s-0.9,0.3-1.3,0.3c-0.5,0-1-0.1-1.3-0.2c-0.3-0.1-0.7-0.3-0.9-0.6s-0.4-0.5-0.5-0.9c-0.1-0.4-0.1-0.7-0.1-1.1c0-0.3,0-0.5,0.1-0.8
	c0.1-0.3,0.1-0.5,0.1-0.8l1.3-6.5l0.1-0.1c0.1-0.1,0.1-0.1,0.2-0.1c0.1-0.1,0.2-0.1,0.3-0.1c0.1,0,0.3,0,0.5,0c0.2,0,0.3,0,0.5,0
	c0.1,0,0.2,0,0.3,0.1c0.1,0.1,0.1,0.1,0.1,0.1v0.1l-1.2,6.4c-0.1,0.2-0.1,0.4-0.1,0.6s-0.1,0.5-0.1,0.7c0,0.3,0,0.5,0.1,0.7
	s0.1,0.3,0.2,0.5c0.1,0.1,0.3,0.3,0.4,0.3s0.4,0.1,0.6,0.1c0.4,0,0.9-0.1,1.2-0.3c0.4-0.2,0.9-0.6,1.2-1s0.7-0.9,1-1.5
	c0.3-0.6,0.5-1.2,0.7-1.9l0.9-4.6l0.1-0.1c0.1-0.1,0.1-0.1,0.2-0.1s0.2-0.1,0.3-0.1s0.3,0,0.5,0s0.3,0,0.5,0c0.1,0,0.2,0,0.3,0.1
	c0.1,0.1,0.1,0.1,0.1,0.1v0.1L299.8,64.1z"/>
<path class="st1" d="M313.8,56.9c0,0.5-0.1,0.9-0.1,1.5c-0.1,0.6-0.2,1.1-0.4,1.7s-0.4,1.1-0.7,1.6c-0.3,0.5-0.7,1-1.1,1.4
	c-0.4,0.5-0.9,0.7-1.4,1c-0.6,0.3-1.1,0.4-1.8,0.4c-0.3,0-0.7-0.1-0.9-0.1s-0.5-0.2-0.8-0.3c-0.3-0.1-0.5-0.3-0.7-0.5
	c-0.2-0.2-0.4-0.3-0.5-0.5l-1,5c0,0.1-0.1,0.1-0.1,0.1s-0.1,0.1-0.2,0.1c-0.1,0.1-0.2,0.1-0.3,0.1c-0.1,0-0.3,0-0.5,0s-0.3,0-0.5,0
	s-0.2-0.1-0.3-0.1c-0.1,0-0.1-0.1-0.1-0.1s0-0.1,0-0.1l2.9-14.5c0-0.1,0.1-0.2,0.3-0.3c0.2-0.1,0.4-0.1,0.7-0.1c0.1,0,0.3,0,0.4,0
	c0.1,0,0.2,0,0.3,0.1c0.1,0.1,0.1,0.1,0.1,0.1s0,0.1,0,0.1l-0.4,2c0.1-0.3,0.3-0.5,0.5-0.8s0.6-0.5,0.9-0.8s0.8-0.5,1.2-0.6
	c0.4-0.1,0.9-0.3,1.3-0.3c0.6,0,1.1,0.1,1.4,0.3c0.4,0.2,0.7,0.5,1,0.8c0.3,0.3,0.4,0.7,0.5,1.2S313.8,56.4,313.8,56.9z M311.8,57.1
	c0-0.3,0-0.7-0.1-0.9c-0.1-0.3-0.1-0.5-0.3-0.7c-0.1-0.2-0.3-0.3-0.5-0.5s-0.5-0.1-0.8-0.1c-0.4,0-0.9,0.1-1.2,0.3
	c-0.4,0.2-0.9,0.5-1.2,1c-0.3,0.5-0.7,0.9-1,1.4c-0.3,0.5-0.5,1.2-0.7,1.8l-0.4,1.9c0.4,0.5,0.7,0.9,1.2,1.2
	c0.5,0.3,0.9,0.4,1.4,0.4c0.4,0,0.8-0.1,1.1-0.3c0.3-0.2,0.7-0.5,0.9-0.8c0.3-0.3,0.5-0.7,0.7-1.1c0.2-0.5,0.3-0.9,0.5-1.2
	s0.2-0.9,0.3-1.3C311.7,57.7,311.8,57.4,311.8,57.1z"/>
</svg>
